<?xml version="1.0"?>
<svg xmlns="http://www.w3.org/2000/svg" xmlns:xlink="http://www.w3.org/1999/xlink" version="1.1" baseProfile="full" viewBox="0 0 200 200" width="200" height="200">
<g fill="rgb(239,69,74)">
<path d="M 178.0 145.0 L 180.0 145.0 L 178.0 170.0 L 181.6 172.4 L 184.0 176.0 L 181.6 179.6 L 178.0 182.0 L 110.0 182.0 L 107.4 181.8 L 104.9 181.4 L 102.5 180.6 L 100.2 179.3 L 98.2 177.7 L 96.6 175.7 L 95.3 173.4 L 94.5 171.0 L 94.1 168.5 L 94.0 166.0 L 94.0 148.0 L 55.0 148.0 L 55.0 160.0 L 43.0 166.0 L 43.0 86.0 L 55.0 92.0 L 145.0 92.0 L 151.0 87.0 L 162.0 96.0 L 157.0 100.0 L 157.0 152.0 L 145.0 158.0 L 145.0 148.0 L 106.0 148.0 L 106.0 167.2 L 106.2 168.1 L 106.5 169.0 L 106.9 169.4 L 107.8 169.7 L 108.7 169.9 L 110.0 170.0 L 172.0 170.0 Z M 55.0 122.0 L 55.0 144.0 L 94.0 144.0 L 94.0 122.0 Z M 106.0 122.0 L 106.0 144.0 L 145.0 144.0 L 145.0 122.0 Z M 55.0 96.0 L 55.0 118.0 L 94.0 118.0 L 94.0 96.0 Z M 106.0 96.0 L 106.0 118.0 L 145.0 118.0 L 145.0 96.0 Z M 29.0 35.0 L 94.0 35.0 L 94.0 13.0 L 106.0 15.0 L 109.0 17.0 L 106.0 18.8 L 106.0 35.0 L 149.0 35.0 L 159.0 25.0 L 171.0 35.0 L 171.0 39.0 L 133.20746269226075 39.0 L 141.8 44.7 L 143.5 47.8 L 139.41200494766235 48.011448001861574 L 137.6 50.4 L 135.3 53.4 L 132.8 56.4 L 130.1 59.5 L 127.2 62.6 L 124.2 65.8 L 120.9 69.0 L 117.3 72.2 L 116.40303030014039 73.0 L 162.0 73.0 L 172.0 63.0 L 184.0 73.0 L 184.0 77.0 L 16.0 77.0 L 16.0 73.0 L 113.13333330154418 73.0 L 114.8 70.2 L 117.1 66.1 L 119.4 62.2 L 121.5 58.4 L 123.5 54.8 L 125.4 51.4 L 127.1 48.1 L 128.6 44.9 L 130.0 41.9 L 130.80822134017944 39.946798419952394 L 130.7 39.9 L 131.17368421554565 39.0 L 29.0 39.0 Z M 68.0 63.4 L 67.1 60.7 L 66.0 58.0 L 64.8 55.4 L 63.4 52.7 L 61.9 50.1 L 60.2 47.4 L 58.4 44.7 L 56.2 42.3 L 57.3 40.9 L 60.2 42.7 L 63.2 44.4 L 66.0 46.4 L 68.6 48.6 L 71.0 50.9 L 73.3 53.5 L 75.4 56.2 L 77.4 59.0 L 79.1 62.0 L 80.7 65.2 L 80.3 69.8 L 76.9 72.8 L 72.3 72.4 L 69.3 69.0 L 68.7 66.2 Z "/>
</g>
</svg>
