<?xml version="1.0"?>
<svg xmlns="http://www.w3.org/2000/svg" xmlns:xlink="http://www.w3.org/1999/xlink" version="1.1" baseProfile="full" viewBox="0 0 200 200" width="200" height="200">
<g fill="black" stroke-width="0">
<path d="M 163.2 173.3 L 156.7 165.6 L 150.8 157.3 L 145.4 148.4 L 140.6 139.0 L 136.3 129.1 L 132.7 118.7 L 129.8 107.7 L 127.77068967819214 97.0 L 107.9 97.0 L 107.9 166.125 L 113.2 164.8 L 119.7 163.3 L 126.3 161.6 L 132.9 160.0 L 139.7 158.5 L 146.6 157.1 L 147.3 158.8 L 141.0 162.1 L 134.7 165.1 L 128.3 167.9 L 122.0 170.5 L 115.7 172.9 L 109.5 175.3 L 103.2 177.5 L 97.1 179.6 L 90.9 181.6 L 88.78515710830689 182.2587215423584 L 87.5 185.9 L 84.8 183.5 L 79.9 172.4 L 81.8 171.9 L 94.2 169.3 L 95.9 168.8952381134033 L 95.9 19.0 L 107.9 25.0 L 158.0 25.0 L 164.0 20.0 L 175.0 29.0 L 170.0 33.0 L 170.0 99.0 L 158.0 105.0 L 158.0 97.0 L 129.92242994308472 97.0 L 133.7 106.4 L 138.2 116.6 L 142.9 126.1 L 147.79917697906495 134.9185185432434 L 148.1 134.6 L 151.3 131.1 L 154.6 127.7 L 157.8 124.4 L 160.9 121.2 L 164.0 118.1 L 167.0 115.0 L 169.8 112.0 L 172.6 109.1 L 174.62584972381592 106.92408723831177 L 174.6 106.9 L 175.5 106.0 L 183.4 115.1 L 184.0 118.6 L 180.1860082626343 117.51028804779052 L 173.4 122.5 L 166.2 127.5 L 162.4 130.0 L 158.5 132.5 L 154.4 135.0 L 150.2 137.3 L 149.5442307472229 137.65769233703614 L 153.3 143.5 L 159.1 151.3 L 165.2 158.5 L 171.7 165.1 L 178.5 171.2 L 185.8 176.7 L 188.7 178.9 L 177.8 187.2 L 170.2 180.6 Z M 16.0 170.9 L 22.8 169.6 L 29.6 168.2 L 43.4 165.4 L 47.1 164.52941179275513 L 47.1 105.0 L 18.1 105.0 L 18.1 101.0 L 47.1 101.0 L 47.1 73.0 L 33.4 73.0 L 33.4 69.0 L 64.01818180084229 69.0 L 72.2 60.0 L 82.2 69.0 L 82.2 73.0 L 59.1 73.0 L 59.1 101.0 L 65.3 101.0 L 75.3 91.0 L 87.3 101.0 L 87.3 105.0 L 59.1 105.0 L 59.1 161.75942029953003 L 64.1 160.6 L 71.1 159.0 L 78.1 157.5 L 85.3 156.1 L 85.9 157.8 L 79.4 161.1 L 72.8 164.1 L 66.1 166.9 L 59.4 169.5 L 52.6 172.0 L 45.8 174.3 L 39.1 176.5 L 32.3 178.7 L 25.5 180.7 L 22.626772594451904 181.49117860794067 L 21.3 185.1 L 18.6 182.6 L 14.0 171.3 Z M 28.8 145.5 L 28.4 142.5 L 27.8 139.5 L 27.1 136.5 L 26.1 133.5 L 24.9 130.5 L 23.5 127.4 L 21.9 124.3 L 19.8 121.3 L 21.1 120.0 L 26.9 124.8 L 29.5 127.4 L 31.9 130.2 L 34.1 133.2 L 35.9 136.4 L 37.6 139.7 L 38.9 143.1 L 40.0 146.7 L 40.9 150.4 L 39.4 154.8 L 35.4 156.9 L 31.1 155.5 L 28.9 151.5 L 28.9 148.5 Z M 84.0 122.0 L 86.1 124.9 L 82.12160205841064 125.66776103973389 L 80.8 128.0 L 79.1 130.9 L 77.3 133.9 L 75.3 136.9 L 73.3 139.8 L 71.2 142.8 L 68.9 145.6 L 66.4 148.5 L 64.1 151.4 L 62.6 150.5 L 64.0 147.1 L 65.0 143.5 L 66.2 140.1 L 67.3 136.8 L 68.3 133.5 L 70.3 127.1 L 71.2 123.9 L 72.0 120.8 L 72.54871797561646 118.74230766296387 L 72.4 118.7 L 73.3 116.4 Z M 107.9 63.0 L 107.9 93.0 L 158.0 93.0 L 158.0 63.0 Z M 74.1 49.3 L 72.5 46.8 L 70.7 44.2 L 68.6 41.6 L 66.1 39.0 L 63.4 36.4 L 60.5 33.7 L 57.2 30.8 L 54.93485240936279 29.16406011581421 L 52.7 34.4 L 48.9 42.5 L 44.7 50.3 L 40.3 58.0 L 35.5 65.4 L 30.4 72.6 L 24.9 79.6 L 19.1 86.2 L 12.8 92.5 L 11.4 91.4 L 16.1 83.9 L 20.6 76.5 L 24.9 69.0 L 29.0 61.5 L 32.8 53.9 L 36.4 46.2 L 39.7 38.3 L 42.7 30.4 L 45.5 22.3 L 47.63428907394409 15.007845783233643 L 47.6 15.0 L 48.4 12.5 L 59.4 17.7 L 61.6 20.5 L 58.00779218673706 21.398051929473876 L 56.2 26.2 L 55.794030570983885 27.151128387451173 L 58.7 28.3 L 62.8 29.8 L 66.7 31.6 L 70.3 33.6 L 73.7 35.7 L 76.9 37.9 L 79.7 40.3 L 82.4 42.9 L 84.8 45.6 L 86.9 48.5 L 87.3 53.0 L 84.4 56.6 L 79.9 57.0 L 76.3 54.1 L 75.3 51.7 Z M 107.9 29.0 L 107.9 59.0 L 158.0 59.0 L 158.0 29.0 Z "/>
</g>
</svg>
