<?xml version="1.0"?>
<svg xmlns="http://www.w3.org/2000/svg" xmlns:xlink="http://www.w3.org/1999/xlink" version="1.1" baseProfile="full" viewBox="0 0 200 200" width="200" height="200">
<g fill="black" stroke-width="0">
<path d="M 67.6 105.0 L 66.1 102.7 L 64.4 100.4 L 62.5 98.2 L 60.4 95.9 L 58.2 93.7 L 55.8 91.4 L 53.9 89.7192307472229 L 53.9 183.0 L 41.9 189.0 L 41.9 94.3848484992981 L 39.9 99.9 L 36.3 108.7 L 32.3 117.3 L 28.0 125.6 L 23.2 133.6 L 18.1 141.2 L 12.5 148.4 L 11.0 147.5 L 14.8 139.3 L 18.5 131.1 L 22.0 122.7 L 25.3 114.3 L 28.3 105.7 L 31.1 96.9 L 33.6 87.9 L 35.8 78.8 L 37.7 69.4 L 38.76666669845581 63.0 L 11.7 63.0 L 11.7 59.0 L 41.9 59.0 L 41.9 14.0 L 53.9 16.0 L 56.9 18.0 L 53.9 19.8 L 53.9 59.0 L 59.4 59.0 L 69.4 49.0 L 81.4 59.0 L 81.4 63.0 L 53.9 63.0 L 53.9 86.53823528289794 L 54.4 86.7 L 57.9 87.8 L 61.2 89.1 L 64.3 90.5 L 67.3 92.2 L 70.2 94.1 L 72.9 96.1 L 75.5 98.3 L 77.9 100.6 L 80.2 103.1 L 81.0 107.6 L 78.5 111.4 L 74.0 112.3 L 70.2 109.8 L 69.0 107.4 Z M 75.0 172.0 L 125.0 172.0 L 125.0 135.0 L 86.2 135.0 L 86.2 131.0 L 125.0 131.0 L 125.0 97.0 L 137.0 99.0 L 140.0 101.0 L 137.0 102.8 L 137.0 131.0 L 154.5 131.0 L 164.5 121.0 L 176.5 131.0 L 176.5 135.0 L 137.0 135.0 L 137.0 172.0 L 165.7 172.0 L 175.7 162.0 L 187.7 172.0 L 187.7 176.0 L 75.0 176.0 Z M 77.1 91.0 L 125.0 91.0 L 125.0 55.0 L 86.2 55.0 L 86.2 51.0 L 125.0 51.0 L 125.0 17.0 L 137.0 19.0 L 140.0 21.0 L 137.0 22.8 L 137.0 51.0 L 154.5 51.0 L 164.5 41.0 L 176.5 51.0 L 176.5 55.0 L 137.0 55.0 L 137.0 91.0 L 163.6 91.0 L 173.6 81.0 L 185.6 91.0 L 185.6 95.0 L 77.1 95.0 Z "/>
</g>
</svg>
