<?xml version="1.0" encoding="UTF-8" standalone="no"?>
<svg xmlns:svg="http://www.w3.org/2000/svg" xmlns="http://www.w3.org/2000/svg" version="1.1" style="overflow:visible" viewBox="-150 -150 300 300" height="300px" width="300px">
  <rect fill-opacity="0" fill="rgb(0,0,0)" height="300" width="300" y="-150" x="-150"/>
  <svg version="1.1" y="-250" x="-250" viewBox="-250 -250 500 500" height="500px" width="500px" style="overflow:visible">
    <g transform="rotate(0,0,0)" stroke-linejoin="round" fill="#fff">
      <path stroke-linecap="butt" stroke-linejoin="round" stroke="none" fill="rgb(255,227,156)" d="m0.002-147l-98.2634 51.815l-24.5653 242.185h245.653l-24.5653-242.185z"/>
      <path stroke-linecap="butt" stroke-linejoin="round" stroke="none" fill="rgb(68,68,68)" d="m-8.370001-26.335001v24h-16.2l9.84-4.2c-1.8-5.52-6.48-13.68-11.04-19.8zm-13.56-36.6c8.64-7.2 16.079999-15 21.24-22.2c5.28 7.2 13.2 15 22.08 22.2zm45.24 36.6c-2.64 6.36-7.44 15.12-11.4 20.76l7.8 3.24h-13.08v-24h36.96v-12.24h-36.96v-11.88h22.92v-6.24c6 4.32 12.24 8.279999 18.24 11.4c2.64-4.44 5.88-9.24 9.48-12.84c-18.96-7.68-38.28-22.8-51.24-40.92h-14.76c-8.88 14.4-28.08 32.4-48.48 42.36c3.12 3 7.08 8.16 8.88 11.52c6.12-3.24 12.24-7.08 17.88-11.16v5.88h22.08v11.88h-36.48v12.24h18.36l-10.92 4.68c4.2 5.88 8.16 13.92 9.96 19.32h-23.4v12.24h101.52v-12.24h-27.12c4.2-5.04 8.88-12.36 13.44-18.96z"/>
      <path stroke-linecap="butt" stroke-linejoin="round" stroke="none" fill="rgb(68,68,68)" d="m-35.91 47.975c-2.28-6.24-5.52-13.44-8.76-19.32l-11.64 5.04c4.08 8.52 8.4 19.56 9.96 26.76l10.44-5.04v22.92c-8.04 5.04-16.08 9.6-21.36 12.48l6.36 14.88c4.8-3.48 9.96-7.44 15-11.4v31.92h13.92v-111.84h-13.92zm76.44-33.72c-14.52 4.32-38.16 7.8-59.16 9.72c1.32 2.88 3.12 8.039999 3.6 11.28c21.6-1.56 46.8-4.92 65.04-10.08zm-15.84 40.44c-0.6-5.52-3.24-14.28-6.12-20.88l-12.36 3.24c2.76 6.84 5.04 15.6 5.4 21.24zm-20.4 4.2c-1.44-5.88-5.52-14.52-9.48-21.12l-11.28 4.08c3.72 6.96 7.32 16.079999 8.52 21.72zm-15.12 31.92c5.28 6.48 11.52 15.36 13.8 21.12l12.48-6.84c-2.76-5.88-9.24-14.28-14.76-20.28zm66.84-20.04h-15.48v-7.56h-3.48c5.64-6.96 11.88-15.96 17.16-24.6l-13.2-6.12c-4.44 9.36-12.36 21.48-18.6 29.16l3.96 2.04v7.08h-44.64v13.2h44.64v26.52c0 1.56-0.48 1.92-2.52 2.04s-8.76 0.12-15-0.24c1.92 3.96 3.84 9.96 4.44 13.92c9.36 0 16.2-0.12 20.88-2.4c5.04-2.04 6.36-5.88 6.36-13.08v-26.76h15.48z"/>
      <path stroke-linecap="butt" stroke-linejoin="round" stroke-width="0" stroke-opacity="1" stroke="rgb(68,68,68)" fill="none" d="m0.002-147l-98.2634 51.815l-24.5653 242.185h245.653l-24.5653-242.185z"/>
    </g>
  </svg>
</svg>
