<?xml version="1.0" encoding="UTF-8" standalone="no"?>
<svg xmlns:svg="http://www.w3.org/2000/svg" xmlns="http://www.w3.org/2000/svg" version="1.1" style="overflow:visible" viewBox="-150 -150 300 300" height="300px" width="300px">
  <rect fill-opacity="0" fill="rgb(0,0,0)" height="300" width="300" y="-150" x="-150"/>
  <svg version="1.1" y="-250" x="-250" viewBox="-250 -250 500 500" height="500px" width="500px" style="overflow:visible">
    <g transform="rotate(0,0,0)" stroke-linejoin="round" fill="#fff">
      <path stroke-linecap="butt" stroke-linejoin="round" stroke="none" fill="rgb(255,227,156)" d="m0.002-147l-98.2634 51.815l-24.5653 242.185h245.653l-24.5653-242.185z"/>
      <path stroke-linecap="butt" stroke-linejoin="round" stroke="none" fill="rgb(68,68,68)" d="m42.42-96.055c-2.04 3.6-5.88 9.12-8.88 12.36l8.4 4.68c3.6-2.76 7.92-6.96 12.72-11.28zm11.28 25.08c-5.04-4.08-15.24-10.2-22.68-13.92l-3.84 3.6c-0.6-3.84-0.96-7.92-1.2-12h-74.52v12.72h62.88c2.64 18.84 8.88 34.8 28.08 37.2c7.44 1.44 12.24-2.52 14.28-13.08c-2.64-1.68-5.76-5.04-8.04-7.8c-0.72 5.28-1.68 8.76-3.24 8.52c-8.88-0.72-13.92-8.28-16.68-18.36c6.36 3.84 13.08 8.279999 16.559999 11.52zm-4.92 60.36c-0.72 6.84-1.68 11.28-3.24 11.04c-8.16-0.72-12.48-8.76-14.88-20.04c6.24 3.72 12.72 7.92 16.2 11.04zm6.36-6.6c-3-2.52-7.8-5.52-12.84-8.28c3.48-2.76 7.8-6.84 12.48-11.04l-12.24-5.76c-2.04 3.6-5.88 8.88-8.88 12.24l-2.4-1.2l-2.04 2.04c-0.72-6.12-0.96-12.72-1.08-19.2h-25.56v-28.8h-13.92v28.8h-13.8v-17.04h-0.72c4.44-2.76 8.52-5.76 11.76-8.88l-12.12-4.68c-6.72 5.64-19.32 10.44-30.6 13.32c2.52 2.52 6.36 8.16 8.039999 10.92c3.24-1.08 6.72-2.52 10.08-3.96v10.32h-15.72v12.96h15.48c-0.84 13.44-4.44 27.84-18 39.24c3.24 2.04 8.279999 6.6 10.56 9.6c16.32-13.92 20.28-32.16 21.12-48.84h13.92v47.16h13.92v-47.16h12.84c1.56 24.84 6.24 45.96 26.88 48.72c7.92 1.56 12.6-3 14.64-15.6c-2.64-1.56-5.76-5.16-8.04-8.28z"/>
      <path stroke-linecap="butt" stroke-linejoin="round" stroke="none" fill="rgb(68,68,68)" d="m-28.44 79.535v-7.32h20.88v7.32zm0-25.32h20.88v7.32h-20.88zm56.52 0v7.32h-21v-7.32zm0 25.32h-21v-7.32h21zm26.88 17.88h-47.88v-6.48h35.4v-48.12h-35.4v-5.76h44.4v-12.96h-44.4v-9.72h-14.64v9.72h-43.56v12.96h43.56v5.76h-34.56v48.12h34.56v6.48h-46.44v12.84h46.44v16.2h14.64v-16.2h47.88z"/>
      <path stroke-linecap="butt" stroke-linejoin="round" stroke-width="0" stroke-opacity="1" stroke="rgb(68,68,68)" fill="none" d="m0.002-147l-98.2634 51.815l-24.5653 242.185h245.653l-24.5653-242.185z"/>
    </g>
  </svg>
</svg>
