<?xml version="1.0" encoding="UTF-8" standalone="no"?>
<svg xmlns:svg="http://www.w3.org/2000/svg" xmlns="http://www.w3.org/2000/svg" version="1.1" style="overflow:visible" viewBox="-150 -150 300 300" height="300px" width="300px">
  <rect fill-opacity="0" fill="rgb(0,0,0)" height="300" width="300" y="-150" x="-150"/>
  <svg version="1.1" y="-250" x="-250" viewBox="-250 -250 500 500" height="500px" width="500px" style="overflow:visible">
    <g transform="rotate(0,0,0)" stroke-linejoin="round" fill="#fff">
      <path stroke-linecap="butt" stroke-linejoin="round" stroke="none" fill="rgb(255,227,156)" d="m0.002-147l-98.2634 51.815l-24.5653 242.185h245.653l-24.5653-242.185z"/>
      <path stroke-linecap="butt" stroke-linejoin="round" stroke="none" fill="rgb(68,68,68)" d="m-50.214 28.829999c14.3734-8.77333 27.6267-19.7867 38.2667-32.1067v27.8133h23.1467v-27.6267c11.9466 12.32 26.32 23.3333 41.44 31.92zm15.68 52.2667v-10.2667h70.3734v10.2667zm70.3734-25.3867h-70.3734v-10.08h70.3734zm47.2267-64.213301v-19.7867h-71.8667v-15.3067c18.6666-2.24 36.5866-5.04 52.08-8.96l-15.68-17.7333c-28 6.90667-74.48 11.3867-115.36 12.88c2.24 5.04 4.8533 13.44 5.4133 18.8533c16.4267-0.37334 33.4133-1.30667 50.4-2.8v13.0667h-71.4933v19.7867h50.5866c-15.12 13.2533-35.4666 24.8267-55.8133 30.9867c4.6667 4.48 11.0133 12.88 14.3733 18.1067c5.9734-2.24 11.76-4.85333 17.5467-8.02666v71.12h22.2133v-5.78667h70.3734v5.6h23.3333v-71.12c5.2267 2.61333 10.08 4.85333 15.3067 6.72c3.1733-5.22667 9.52-13.44 14.1867-17.7333c-19.9734-6.16-40.6934-17.36-56.3734-29.8667z"/>
      <path stroke-linecap="butt" stroke-linejoin="round" stroke-width="0" stroke-opacity="1" stroke="rgb(68,68,68)" fill="none" d="m0.002-147l-98.2634 51.815l-24.5653 242.185h245.653l-24.5653-242.185z"/>
    </g>
  </svg>
</svg>
