<?xml version="1.0" encoding="UTF-8" standalone="no"?>
<svg xmlns:svg="http://www.w3.org/2000/svg" xmlns="http://www.w3.org/2000/svg" version="1.1" style="overflow:visible" viewBox="-150 -150 300 300" height="300px" width="300px">
  <rect fill-opacity="0" fill="rgb(0,0,0)" height="300" width="300" y="-150" x="-150"/>
  <svg version="1.1" y="-250" x="-250" viewBox="-250 -250 500 500" height="500px" width="500px" style="overflow:visible">
    <g transform="rotate(0,0,0)" stroke-linejoin="round" fill="#fff">
      <path stroke-linecap="butt" stroke-linejoin="round" stroke="none" fill="rgb(255,227,156)" d="m0.002-147l-98.2634 51.815l-24.5653 242.185h245.653l-24.5653-242.185z"/>
      <path stroke-linecap="butt" stroke-linejoin="round" stroke="none" fill="rgb(68,68,68)" d="m65.985999-66.557c-3.1733 5.6-9.1466 14.1867-13.8133 19.2267l13.0667 7.28c5.6-4.29333 12.32-10.8267 19.7866-17.5467zm17.5467 39.0133c-7.84-6.34667-23.7067-15.8667-35.28-21.6533l-5.9733 5.6c-0.9334-5.97334-1.4934-12.32-1.8667-18.6667h-115.92v19.7867h97.8133c4.1067 29.3067 13.8134 54.1333 43.68 57.8667c11.5734 2.24 19.04-3.92 22.2134-20.3467c-4.1067-2.61334-8.96-7.84-12.5067-12.1333c-1.12 8.21334-2.6133 13.6267-5.04 13.2533c-13.8133-1.12-21.6533-12.88-25.9467-28.56c9.8934 5.97333 20.3467 12.88 25.76 17.92zm-7.6533 93.8933c-1.12 10.64-2.6134 17.5467-5.04 17.1733c-12.6934-1.12-19.4134-13.6267-23.1467-31.1733c9.7067 5.78666 19.7867 12.32 25.2 17.1733zm9.8933-10.2667c-4.6667-3.92-12.1333-8.58667-19.9733-12.88c5.4133-4.29334 12.1333-10.64 19.4133-17.1733l-19.04-8.96c-3.1733 5.6-9.1467 13.8133-13.8133 19.04l-3.7334-1.86666l-3.1733 3.17333c-1.12-9.52-1.4933-19.7867-1.68-29.8667h-39.76v-44.8h-21.6533v44.8h-21.4667v-26.5067h-1.12c6.9067-4.29334 13.2533-8.96 18.2933-13.8133l-18.8533-7.28c-10.4533 8.77334-30.0533 16.239999-47.6 20.72c3.92 3.92 9.8933 12.6933 12.5067 16.9867c5.04-1.68 10.4533-3.92 15.68-6.16v16.0533h-24.4534v20.16h24.08c-1.3066 20.9067-6.9066 43.3067-28 61.04c5.04 3.17333 12.88 10.2667 16.4267 14.9333c25.3867-21.6533 31.5467-50.0267 32.853299-75.9733h21.6534v73.36h21.6533v-73.36h19.9733c2.4267 38.64 9.7067 71.4933 41.8134 75.7867c12.32 2.42667 19.6-4.66666 22.7733-24.2667c-4.1067-2.42667-8.96-8.02667-12.5067-12.88z"/>
      <path stroke-linecap="butt" stroke-linejoin="round" stroke-width="0" stroke-opacity="1" stroke="rgb(68,68,68)" fill="none" d="m0.002-147l-98.2634 51.815l-24.5653 242.185h245.653l-24.5653-242.185z"/>
    </g>
  </svg>
</svg>
