<?xml version="1.0" encoding="UTF-8" standalone="no"?>
<svg xmlns:svg="http://www.w3.org/2000/svg" xmlns="http://www.w3.org/2000/svg" version="1.1" style="overflow:visible" viewBox="-150 -150 300 300" height="300px" width="300px">
  <rect fill-opacity="0" fill="rgb(0,0,0)" height="300" width="300" y="-150" x="-150"/>
  <svg version="1.1" y="-250" x="-250" viewBox="-250 -250 500 500" height="500px" width="500px" style="overflow:visible">
    <g transform="rotate(0,0,0)" stroke-linejoin="round" fill="#fff">
      <path stroke-linecap="butt" stroke-linejoin="round" stroke="none" fill="rgb(255,227,156)" d="m0.002-147l-98.2634 51.815l-24.5653 242.185h245.653l-24.5653-242.185z"/>
      <path stroke-linecap="butt" stroke-linejoin="round" stroke="none" fill="rgb(68,68,68)" d="m16.892999 20.617h10.4533c3.36 17.7333 8.026669 33.6 14.7467 47.04c-8.4 1.86667-16.9867 3.73334-25.2 5.6zm41.44-64.773301v12.88h-41.44v-12.88zm-41.44 45.1733v-13.6267h41.44v13.6267zm-79.3334-25.5733c7.84001-8.58667 13.8134-17.36 18.8533-25.3867c7.84001 7.46667 16.239999 17.5467 21.84 25.3867zm134.213 49.84c-4.66667 5.04-11.76 11.3867-18.48 16.4267c-2.61333-6.53333-4.48-13.6267-6.15999-21.0933h32.2933v-84.3733h-83.2534v141.12l-6.15999 1.12l-0.56-10.08c-8.58667 1.49333-17.36 2.8-25.9467 4.29333v-46.2933h24.64v-18.8533h-24.64v-13.6267h20.5333v-17.7333l11.3867-13.44c-6.90665-10.08-21.6533-23.8933-33.04-33.2267h-18.1067c-6.53333 14.3733-17.92 31.92-34.5333 45.1733c4.48 2.98667 10.64 10.2667 13.6267 14.7467l2.98666-2.61334v7.09334h17.92v13.6267h-26.1333v18.8533h26.1333v49.28c-10.8267 1.68-20.72 2.98667-28.7467 4.10667l4.29332 19.7867c18.1067-2.98666 41.8134-7.09333 64.586698-11.3867l3.73334 13.44c16.4267-3.73334 37.1467-8.58667 56.56-13.44l-2.42666-19.7867c8.02666 15.4933 18.6667 27.6267 33.7867 35.6533c2.98665-5.78666 9.33333-14.1867 14.1867-18.48c-12.5067-5.78666-22.0267-15.12-29.12-27.0667c8.02666-5.04 17.7333-11.76 25.5733-18.1067zm-151.947 11.9467c2.98667 10.2667 5.78667 23.52 6.34667 32.479999l15.3067-4.29334c-0.93333-8.58666-3.92-21.84-7.09333-31.92zm58.6133 29.8667c3.17333-8.02666 6.90666-20.16 10.64-31.1733l-16.8-4.106672c-1.12 9.14667-4.29333 22.7733-6.90666 31.36z"/>
      <path stroke-linecap="butt" stroke-linejoin="round" stroke-width="0" stroke-opacity="1" stroke="rgb(68,68,68)" fill="none" d="m0.002-147l-98.2634 51.815l-24.5653 242.185h245.653l-24.5653-242.185z"/>
    </g>
  </svg>
</svg>
