<svg xmlns="http://www.w3.org/2000/svg" xmlns:xlink="http://www.w3.org/1999/xlink" version="1.1" baseProfile="full" viewBox="0 0 200 200" width="200" height="200">
<g fill="black">
<path d="M 19.0 175.0 L 94.0 175.0 L 94.0 134.0 L 43.0 134.0 L 43.0 130.0 L 94.0 130.0 L 94.0 92.0 L 55.0 92.0 L 55.0 88.0 L 123.0 88.0 L 133.0 78.0 L 145.0 88.0 L 145.0 92.0 L 106.0 92.0 L 106.0 130.0 L 135.0 130.0 L 145.0 120.0 L 157.0 130.0 L 157.0 134.0 L 106.0 134.0 L 106.0 175.0 L 159.0 175.0 L 169.0 165.0 L 181.0 175.0 L 181.0 179.0 L 19.0 179.0 Z M 157.9 87.9 L 149.2 81.7 L 140.8 74.9 L 132.7 67.5 L 125.0 59.5 L 117.5 50.9 L 110.5 41.7 L 103.8 31.8 L 101.76434335708618 28.2036732673645 L 99.3 32.1 L 91.5 43.2 L 83.1 53.6 L 74.3 63.3 L 65.0 72.3 L 55.3 80.7 L 45.0 88.3 L 34.3 95.2 L 23.1 101.3 L 11.4 106.5 L 10.5 104.8 L 21.2 98.0 L 31.3 90.7 L 41.0 83.1 L 50.3 74.9 L 59.1 66.3 L 67.5 57.0 L 75.3 47.3 L 82.8 36.9 L 89.7 26.0 L 96.2 14.5 L 96.21588506698609 14.508925914764404 L 96.8 13.5 L 106.7 20.4 L 108.3 23.6 L 104.63611440658569 23.663170433044435 L 103.65422172546387 25.215622425079346 L 107.2 29.3 L 115.0 38.0 L 122.9 46.1 L 130.9 53.6 L 138.9 60.6 L 147.2 66.9 L 155.6 72.7 L 164.1 77.9 L 172.8 82.4 L 181.7 86.4 L 187.6 89.1 L 176.2 98.5 L 166.9 93.5 Z " />
</g>
</svg>
