<svg xmlns="http://www.w3.org/2000/svg" xmlns:xlink="http://www.w3.org/1999/xlink" version="1.1" baseProfile="full" viewBox="0 0 200 200" width="200" height="200">
<g fill="black">
<path d="M 56.7 115.5 L 146.2 115.5 L 152.2 110.5 L 163.2 119.5 L 158.2 123.5 L 158.2 174.2 L 146.2 180.2 L 146.2 168.2 L 56.7 168.2 L 56.7 180.2 L 44.7 186.2 L 44.7 109.5 Z M 56.7 119.5 L 56.7 164.2 L 146.2 164.2 L 146.2 119.5 Z M 158.1 106.5 L 150.2 100.7 L 142.6 94.7 L 135.3 88.2 L 128.4 81.4 L 121.8 74.3 L 115.7 66.7 L 110.0 58.7 L 106.0 52.2384614944458 L 106.0 106.0 L 94.0 112.0 L 94.0 59.89259262084961 L 93.8 60.2 L 87.7 68.1 L 81.0 75.7 L 73.7 83.0 L 65.8 89.9 L 57.2 96.5 L 48.0 102.7 L 38.1 108.5 L 27.6 113.9 L 16.4 118.8 L 15.5 117.1 L 25.7 110.6 L 35.2 104.0 L 44.2 97.3 L 52.5 90.5 L 60.1 83.5 L 67.1 76.4 L 73.5 69.1 L 79.2 61.6 L 84.3 53.9 L 85.8979591369629 51.0 L 16.0 51.0 L 16.0 47.0 L 94.0 47.0 L 94.0 17.0 L 106.0 19.0 L 109.0 21.0 L 106.0 22.8 L 106.0 47.0 L 163.0 47.0 L 173.0 37.0 L 185.0 47.0 L 185.0 51.0 L 108.1 51.0 L 113.2 56.1 L 120.0 62.8 L 127.0 69.2 L 134.1 75.3 L 141.4 81.1 L 148.8 86.5 L 156.5 91.7 L 164.4 96.5 L 172.6 100.9 L 181.0 105.1 L 186.2 107.8 L 174.9 116.8 L 166.4 111.8 Z " />
</g>
</svg>
