<svg xmlns="http://www.w3.org/2000/svg" xmlns:xlink="http://www.w3.org/1999/xlink" version="1.1" baseProfile="full" viewBox="0 0 200 200" width="200" height="200">
<g fill="black">
<path d="M 20.0 172.0 L 94.0 172.0 L 94.0 135.0 L 36.0 135.0 L 36.0 131.0 L 94.0 131.0 L 94.0 97.0 L 106.0 99.0 L 109.0 101.0 L 106.0 102.8 L 106.0 131.0 L 143.0 131.0 L 153.0 121.0 L 165.0 131.0 L 165.0 135.0 L 106.0 135.0 L 106.0 172.0 L 159.0 172.0 L 169.0 162.0 L 181.0 172.0 L 181.0 176.0 L 20.0 176.0 Z M 23.0 91.0 L 94.0 91.0 L 94.0 55.0 L 36.0 55.0 L 36.0 51.0 L 94.0 51.0 L 94.0 17.0 L 106.0 19.0 L 109.0 21.0 L 106.0 22.8 L 106.0 51.0 L 143.0 51.0 L 153.0 41.0 L 165.0 51.0 L 165.0 55.0 L 106.0 55.0 L 106.0 91.0 L 156.0 91.0 L 166.0 81.0 L 178.0 91.0 L 178.0 95.0 L 23.0 95.0 Z " />
</g>
</svg>
