<svg xmlns="http://www.w3.org/2000/svg" xmlns:xlink="http://www.w3.org/1999/xlink" version="1.1" baseProfile="full" viewBox="0 0 200 200" width="200" height="200">
<g fill="black">
<path d="M 156.0 120.3 L 158.0 123.3 L 154.06184253692626 123.84319410324096 L 149.6 132.0 L 141.7 142.6 L 132.3 152.2 L 121.6 160.7 L 109.5 168.1 L 96.0 174.4 L 81.3 179.7 L 65.2 183.9 L 47.8 187.0 L 29.1 188.8 L 28.8 187.1 L 47.1 183.2 L 63.9 178.7 L 79.1 173.5 L 92.9 167.5 L 105.2 160.8 L 116.0 153.2 L 125.4 144.9 L 133.3 135.9 L 139.9 126.1 L 145.1 115.4 L 145.10767879486085 115.40345191955566 L 145.6 114.2 Z M 74.0 136.0 L 94.0 136.0 L 95.2 135.9 L 96.1 135.7 L 97.0 135.4 L 97.4 135.0 L 97.7 134.1 L 97.9 133.2 L 98.0 132.0 L 98.0 80.0 L 20.0 80.0 L 20.0 76.0 L 52.0 76.0 L 52.0 29.0 L 64.0 31.0 L 67.0 33.0 L 64.0 34.8 L 64.0 76.0 L 98.0 76.0 L 98.0 13.0 L 110.0 15.0 L 113.0 17.0 L 110.0 18.8 L 110.0 42.0 L 143.0 42.0 L 153.0 32.0 L 165.0 42.0 L 165.0 46.0 L 110.0 46.0 L 110.0 76.0 L 161.0 76.0 L 171.0 66.0 L 183.0 76.0 L 183.0 80.0 L 110.0 80.0 L 113.0 82.0 L 110.0 83.8 L 110.0 132.0 L 109.8 134.5 L 109.4 137.0 L 108.6 139.4 L 107.3 141.7 L 105.7 143.7 L 103.7 145.3 L 101.4 146.6 L 99.0 147.4 L 96.5 147.8 L 94.0 148.0 L 94.0 142.0 L 74.0 139.0 Z M 73.1 96.1 L 75.2 99.1 L 71.2971962928772 99.70560750961303 L 70.1 102.1 L 66.7 108.0 L 62.8 113.6 L 58.4 119.1 L 53.6 124.4 L 48.3 129.6 L 42.6 134.5 L 36.4 139.2 L 29.7 143.6 L 22.5 147.7 L 21.4 146.2 L 27.4 140.6 L 32.9 135.1 L 38.1 129.7 L 42.8 124.3 L 47.1 118.9 L 51.0 113.5 L 54.4 108.1 L 57.4 102.6 L 59.9 97.2 L 61.65049571990967 92.61536827087403 L 61.6 92.6 L 62.5 90.3 Z M 165.2 115.2 L 162.3 112.1 L 159.0 109.2 L 155.4 106.3 L 151.6 103.4 L 147.5 100.6 L 143.1 97.8 L 138.5 95.0 L 133.6 92.1 L 134.2 90.4 L 139.9 91.6 L 145.3 93.0 L 150.4 94.8 L 155.3 96.9 L 160.0 99.2 L 164.4 101.7 L 168.6 104.4 L 172.5 107.3 L 176.2 110.4 L 179.6 113.8 L 180.9 118.2 L 178.9 122.2 L 174.5 123.6 L 170.4 121.5 L 168.0 118.3 Z " />
</g>
</svg>
