<?xml version="1.0" encoding="UTF-8" standalone="no"?>
<!DOCTYPE svg PUBLIC "-//W3C//DTD SVG 1.1//EN" "http://www.w3.org/Graphics/SVG/1.1/DTD/svg11.dtd">
<svg width="100%" height="100%" viewBox="0 0 100 100" version="1.1" xmlns="http://www.w3.org/2000/svg" xmlns:xlink="http://www.w3.org/1999/xlink" xml:space="preserve" style="fill-rule:evenodd;clip-rule:evenodd;stroke-linejoin:round;stroke-miterlimit:1.41421;">
    <g transform="matrix(1,0,0,1,-28.8535,39.8509)">
        <path d="M69.887,7.541C67.088,1.486 64.923,-7.124 63.393,-18.289C63.002,-21.512 62.481,-23.416 61.83,-24.002C60.821,-24.881 59.08,-25.37 56.606,-25.467L56.606,-28.495C58.071,-28.69 60.073,-28.788 62.612,-28.788C67.69,-28.788 70.229,-27.225 70.229,-24.1L69.692,-17.264C69.692,-9.614 71.157,-2.192 74.086,5.002L94.399,-6.473C95.994,-7.319 96.791,-8.052 96.791,-8.67C96.791,-9.614 95.636,-10.949 93.325,-12.674L95.326,-14.676C101.967,-11.356 105.287,-8.263 105.287,-5.399C105.287,-4.39 104.62,-3.527 103.285,-2.811C102.765,-2.518 101.267,-1.867 98.793,-0.858C82.973,5.653 71.498,11.561 64.369,16.867C57.729,21.847 54.409,26.632 54.409,31.222C54.409,34.803 56.378,37.358 60.317,38.888C64.125,40.386 70.147,41.134 78.383,41.134C85.154,41.134 92.088,40.434 99.184,39.035C99.64,38.937 100.535,38.709 101.869,38.351C102.586,38.188 103.09,38.107 103.383,38.107C105.239,38.107 106.671,38.449 107.68,39.132C108.819,39.914 109.389,40.972 109.389,42.306C109.389,44.064 107.989,45.138 105.19,45.529C97.931,46.538 90.232,47.043 82.094,47.043C69.659,47.043 61.017,45.578 56.166,42.648C52.195,40.207 50.209,36.431 50.209,31.32C50.209,23.312 56.769,15.386 69.887,7.541Z" style="fill-rule:nonzero;"/>
    </g>
</svg>
