<?xml version="1.0" encoding="UTF-8" standalone="no"?>
<svg xmlns:svg="http://www.w3.org/2000/svg" xmlns="http://www.w3.org/2000/svg" version="1.1" style="overflow:visible" viewBox="-150 -150 300 300" height="300px" width="300px">
  <rect fill-opacity="0" fill="rgb(0,0,0)" height="300" width="300" y="-150" x="-150"/>
  <svg version="1.1" y="-250" x="-250" viewBox="-250 -250 500 500" height="500px" width="500px" style="overflow:visible">
    <g transform="rotate(0,0,0)" stroke-linejoin="round" fill="#fff">
      <path stroke-linecap="butt" stroke-linejoin="round" stroke="none" fill="rgb(255,227,156)" d="m0.002-147l-98.2634 51.815l-24.5653 242.185h245.653l-24.5653-242.185z"/>
      <path stroke-linecap="butt" stroke-linejoin="round" stroke="none" fill="rgb(68,68,68)" d="m23.706 44.509999v-17.7333h34.3467v17.7333zm-21.0933-17.7333v17.7333h-33.6c0.93334-5.97333 1.30667-11.9467 1.49334-17.7333zm14.56-69.0667c-2.61333 4.66667-5.78666 9.70667-8.77333 14h-38.4533c3.92-4.48 7.46666-9.33333 10.8267-14zm-46.48 33.4133h31.92v16.9867h-31.92zm87.36 16.9867h-34.3467v-16.9867h34.3467zm22.0267-36.4h-47.4133c5.6-7.65333 11.0133-15.8667 15.12-23.1467l-15.12-9.89334l-3.54667 0.93334h-36.96c1.30667-2.24 2.61333-4.66667 3.73333-6.90667l-23.7067-4.106672c-8.77334 18.2933-24.8267 39.5733-48.5333 55.6267c4.85333 3.17333 12.32 11.0133 15.68 16.239999c3.36-2.61333 6.72-5.22667 9.89333-8.02667v27.8133c0 22.5867-2.61333 50.0267-29.3067 68.88c4.48 2.98667 12.6933 11.2 15.68 15.4933c15.3067-10.8267 24.2667-25.5733 29.12-41.0667h93.3333v14.7467c0 3.54667-1.49333 4.66667-5.41333 4.85334c-4.106672 0-19.4133 0.18666-32.48-0.56c3.17333 5.78666 7.28 15.3067 8.4 21.4667c18.48 0 31.36-0.37333 39.9467-3.73333c8.58666-3.54667 11.5733-9.52 11.5733-21.6533z"/>
      <path stroke-linecap="butt" stroke-linejoin="round" stroke-width="0" stroke-opacity="1" stroke="rgb(68,68,68)" fill="none" d="m0.002-147l-98.2634 51.815l-24.5653 242.185h245.653l-24.5653-242.185z"/>
    </g>
  </svg>
</svg>
