<?xml version="1.0" encoding="UTF-8" standalone="no"?>
<svg xmlns:svg="http://www.w3.org/2000/svg" xmlns="http://www.w3.org/2000/svg" version="1.1" style="overflow:visible" viewBox="-150 -150 300 300" height="300px" width="300px">
  <rect fill-opacity="0" fill="rgb(0,0,0)" height="300" width="300" y="-150" x="-150"/>
  <svg version="1.1" y="-250" x="-250" viewBox="-250 -250 500 500" height="500px" width="500px" style="overflow:visible">
    <g transform="rotate(0,0,0)" stroke-linejoin="round" fill="#fff">
      <path stroke-linecap="butt" stroke-linejoin="round" stroke="none" fill="rgb(255,227,156)" d="m0.002-147l-98.2634 51.815l-24.5653 242.185h245.653l-24.5653-242.185z"/>
      <path stroke-linecap="butt" stroke-linejoin="round" stroke="none" fill="rgb(68,68,68)" d="m11.22-24.655v-11.4h22.08v11.4zm-13.56-11.4v11.4h-21.6c0.6-3.84 0.84-7.68 0.96-11.4zm9.36-44.4c-1.68 3-3.72 6.24-5.64 9h-24.72c2.52-2.88 4.8-6 6.96-9zm-29.88 21.48h20.52v10.92h-20.52zm56.16 10.92h-22.08v-10.92h22.08zm14.16-23.4h-30.48c3.6-4.92 7.08-10.2 9.72-14.88l-9.72-6.36l-2.28 0.6h-23.76c0.84-1.44 1.68-3 2.4-4.44l-15.24-2.64c-5.64 11.76-15.96 25.44-31.2 35.76c3.12 2.04 7.92 7.08 10.08 10.44c2.16-1.68 4.32-3.36 6.36-5.16v17.88c0 14.52-1.68 32.159999-18.84 44.28c2.88 1.92 8.16 7.2 10.08 9.96c9.84-6.96 15.6-16.440001 18.72-26.4h60v9.48c0 2.28-0.96 3-3.48 3.12c-2.64 0-12.48 0.12-20.88-0.36c2.04 3.72 4.68 9.84 5.4 13.8c11.88 0 20.16-0.24 25.68-2.4c5.52-2.28 7.44-6.12 7.44-13.92z"/>
      <path stroke-linecap="butt" stroke-linejoin="round" stroke="none" fill="rgb(68,68,68)" d="m53.399999 21.095h-58.32v13.56h58.32zm-81.36-6.84c-5.76 8.4-17.16 19.2-27.12 25.56c2.52 2.76 6.12 8.52 7.92 11.64c11.4-7.92 24.36-20.28 33-31.56zm4.56 25.92c-7.68 13.56-20.76 27.48-33 35.88c2.88 3 7.68 9.48 9.72 12.36c3.24-2.64 6.48-5.64 9.84-8.88v46.92h14.28v-62.64c4.8-6 9.24-12.24 12.84-18.36zm79.8 13.92h-66.36v13.56h35.4v41.76c0 1.8-0.84 2.28-3 2.28c-2.16 0.12-10.08 0.12-16.92-0.24c1.92 4.08 3.72 10.32 4.32 14.52c10.68 0 18.36-0.24 23.4-2.4c5.28-2.16 6.72-6.12 6.72-13.8v-42.12h16.44z"/>
      <path stroke-linecap="butt" stroke-linejoin="round" stroke-width="0" stroke-opacity="1" stroke="rgb(68,68,68)" fill="none" d="m0.002-147l-98.2634 51.815l-24.5653 242.185h245.653l-24.5653-242.185z"/>
    </g>
  </svg>
</svg>
