<?xml version="1.0" encoding="UTF-8" standalone="no"?>
<svg xmlns:svg="http://www.w3.org/2000/svg" xmlns="http://www.w3.org/2000/svg" version="1.1" style="overflow:visible" viewBox="-150 -150 300 300" height="300px" width="300px">
  <rect fill-opacity="0" fill="rgb(0,0,0)" height="300" width="300" y="-150" x="-150"/>
  <svg version="1.1" y="-250" x="-250" viewBox="-250 -250 500 500" height="500px" width="500px" style="overflow:visible">
    <g transform="rotate(0,0,0)" stroke-linejoin="round" fill="#fff">
      <path stroke-linecap="butt" stroke-linejoin="round" stroke="none" fill="rgb(255,227,156)" d="m0.002-147l-98.2634 51.815l-24.5653 242.185h245.653l-24.5653-242.185z"/>
      <path stroke-linecap="butt" stroke-linejoin="round" stroke="none" fill="rgb(239,69,74)" d="m-67.947 102.377c12.5066-11.2 17.92-29.4933 21.4666-47.7867l-19.6-5.41334c-2.8 16.4267-9.1466 32.106699-19.7866 42zm28.3733-44.6133c3.36 12.1333 5.9733 28.1867 6.16 38.64l19.7867-3.36c-0.56-10.4533-3.36-26.1333-7.28-38.2667zm32.106699-0.56c4.6666 11.0133 8.96 25.5733 10.08 34.5333l18.2933-4.85333c-1.4933-9.14667-6.3467-23.3333-11.2-33.9733zm-32.2934-43.68h33.7867v11.76h-33.7867zm33.7867-57.8667v11.5733h-33.7867v-11.5733zm0 40.6933h-33.7867v-11.5733h33.7867zm22.0267 28.9333v-11.76h49.6533v-17.1733h-49.6533v-11.5733h49.6533v-17.5467h-49.6533v-11.5733h56.1866v-19.04h-133.84v107.893h124.133c-1.68 24.08-3.7334 33.9733-6.3467 37.1467c-1.68 1.86667-3.36 2.05334-6.3467 2.05334c-3.1733 0.18666-10.08 0-17.5466-0.74667c3.36 5.78667 5.7866 14.1867 6.16 20.5333c9.1466 0.37334 17.5466 0.18667 22.7733-0.56c5.7867-0.74666 9.8933-2.42666 14-7.09333c5.4133-6.16 7.84-22.7733 10.2667-61.7867c0.1866-2.98667 0.3733-8.77333 0.3733-8.77333zm36.2133 49.28c-2.4267-7.28-8.4-17.92-14-25.9467l-16.0533 5.41334c5.4133 8.213329 10.8266 19.6 12.88 26.6933z"/>
      <path stroke-linecap="butt" stroke-linejoin="round" stroke-width="0" stroke-opacity="1" stroke="rgb(68,68,68)" fill="none" d="m0.002-147l-98.2634 51.815l-24.5653 242.185h245.653l-24.5653-242.185z"/>
    </g>
  </svg>
</svg>
