<?xml version="1.0" encoding="UTF-8" standalone="no"?>
<svg xmlns:svg="http://www.w3.org/2000/svg" xmlns="http://www.w3.org/2000/svg" version="1.1" style="overflow:visible" viewBox="-150 -150 300 300" height="300px" width="300px">
  <rect fill-opacity="0" fill="rgb(0,0,0)" height="300" width="300" y="-150" x="-150"/>
  <svg version="1.1" y="-250" x="-250" viewBox="-250 -250 500 500" height="500px" width="500px" style="overflow:visible">
    <g transform="rotate(0,0,0)" stroke-linejoin="round" fill="#fff">
      <path stroke-linecap="butt" stroke-linejoin="round" stroke="none" fill="rgb(255,227,156)" d="m0.002-147l-98.2634 51.815l-24.5653 242.185h245.653l-24.5653-242.185z"/>
      <path stroke-linecap="butt" stroke-linejoin="round" stroke="none" fill="rgb(68,68,68)" d="m-32.28-34.735001c9.24-5.64 17.76-12.72 24.6-20.64v17.88h14.88v-17.76c7.68 7.92 16.92 15 26.64 20.52zm10.08 33.6v-6.6h45.24v6.6zm45.24-16.32h-45.24v-6.48h45.24zm30.36-41.28v-12.72h-46.2v-9.84c12-1.44 23.52-3.24 33.479999-5.76l-10.08-11.4c-18 4.44-47.88 7.32-74.16 8.279999c1.44 3.24 3.12 8.64 3.48 12.12c10.56-0.24 21.48-0.84 32.4-1.8v8.4h-45.96v12.72h32.52c-9.72 8.52-22.8 15.96-35.88 19.92c3 2.88 7.08 8.279999 9.24 11.64c3.84-1.44 7.56-3.12 11.28-5.16v45.72h14.28v-3.72h45.24v3.6h15v-45.72c3.36 1.68 6.48 3.12 9.84 4.32c2.04-3.36 6.12-8.64 9.12-11.4c-12.84-3.96-26.16-11.16-36.24-19.2z"/>
      <path stroke-linecap="butt" stroke-linejoin="round" stroke="none" fill="rgb(68,68,68)" d="m-28.620001 79.535v-7.32h20.88v7.32zm0-25.32h20.88v7.32h-20.88zm56.52 0v7.32h-21v-7.32zm0 25.32h-21v-7.32h21zm26.88 17.88h-47.88v-6.48h35.4v-48.12h-35.4v-5.76h44.4v-12.96h-44.4v-9.72h-14.64v9.72h-43.56v12.96h43.56v5.76h-34.56v48.12h34.56v6.48h-46.44v12.84h46.44v16.2h14.64v-16.2h47.88z"/>
      <path stroke-linecap="butt" stroke-linejoin="round" stroke-width="0" stroke-opacity="1" stroke="rgb(68,68,68)" fill="none" d="m0.002-147l-98.2634 51.815l-24.5653 242.185h245.653l-24.5653-242.185z"/>
    </g>
  </svg>
</svg>
