<?xml version="1.0" encoding="UTF-8" standalone="no"?>
<svg xmlns:svg="http://www.w3.org/2000/svg" xmlns="http://www.w3.org/2000/svg" version="1.1" style="overflow:visible" viewBox="-150 -150 300 300" height="300px" width="300px">
  <rect fill-opacity="0" fill="rgb(0,0,0)" height="300" width="300" y="-150" x="-150"/>
  <svg version="1.1" y="-250" x="-250" viewBox="-250 -250 500 500" height="500px" width="500px" style="overflow:visible">
    <g transform="rotate(0,0,0)" stroke-linejoin="round" fill="#fff">
      <path stroke-linecap="butt" stroke-linejoin="round" stroke="none" fill="rgb(255,227,156)" d="m0.002-147l-98.2634 51.815l-24.5653 242.185h245.653l-24.5653-242.185z"/>
      <path stroke-linecap="butt" stroke-linejoin="round" stroke="none" fill="rgb(239,69,74)" d="m33.75-60.415c-2.88 9.72-6.84 18.6-11.52 26.64c-2.04-9.6-3.72-20.88-4.8-32.880001h37.08v-14.16h-12.48l5.76-6.12c-4.2-3.96-12.96-9.48-19.56-12.84l-8.64 8.52c4.92 3 10.92 6.84 15.36 10.44h-18.36c-0.24-5.88-0.36-11.76-0.24-17.76h-15c0 6 0.24 11.88 0.48 17.76h-48.96v35.04c0 15.6-0.84 36.48-9.96 50.88c3.24 1.68 9.6 6.96 12.12 9.72c9.84-14.64 12.36-38.04 12.84-55.56h15.6c-0.36 15.12-0.84 20.88-2.04 22.56c-0.96 1.2-1.92 1.44-3.6 1.44c-1.92 0-6-0.12-10.32-0.48c2.16 3.6 3.72 9.12 3.96 13.32c5.52 0.12 10.68 0.12 13.8-0.36c3.6-0.6 6-1.68 8.279999-4.8c2.76-3.48 3.48-14.16 3.84-39.36c0-1.68 0.12-5.4 0.12-5.4h-29.64v-12.84h34.8c1.56 18 4.2 34.8 8.279999 48.36c-6.96 7.8-15.24 14.4-24.48 19.44c3 2.76 8.16 8.64 10.32 11.76c7.44-4.56 14.16-9.96 20.28-16.32c5.28 9.84 11.88 15.84 20.28 15.84c11.16 0 15.96-5.28 18.24-27.48c-3.84-1.56-8.88-4.68-12.12-8.04c-0.6 15-2.04 21-4.92 21c-3.84 0-7.68-5.04-11.16-13.68c8.64-11.64 15.72-25.56 20.64-41.16z"/>
      <path stroke-linecap="butt" stroke-linejoin="round" stroke="none" fill="rgb(239,69,74)" d="m-32.19 78.214999c9.24-5.64 17.76-12.72 24.6-20.64v17.88h14.88v-17.76c7.68 7.92 16.92 15 26.64 20.52zm10.08 33.6v-6.6h45.24v6.6zm45.24-16.32h-45.24v-6.48h45.24zm30.36-41.28v-12.72h-46.2v-9.84c12-1.44 23.52-3.24 33.479999-5.76l-10.08-11.4c-18 4.44-47.88 7.32-74.16 8.279999c1.44 3.24 3.12 8.64 3.48 12.12c10.56-0.24 21.48-0.84 32.4-1.8v8.4h-45.96v12.72h32.52c-9.72 8.52-22.8 15.96-35.88 19.92c3 2.88 7.08 8.279999 9.24 11.64c3.84-1.44 7.56-3.12 11.28-5.16v45.72h14.28v-3.72h45.24v3.6h15v-45.72c3.36 1.68 6.48 3.12 9.84 4.32c2.04-3.36 6.12-8.64 9.12-11.4c-12.84-3.96-26.16-11.16-36.24-19.2z"/>
      <path stroke-linecap="butt" stroke-linejoin="round" stroke-width="0" stroke-opacity="1" stroke="rgb(68,68,68)" fill="none" d="m0.002-147l-98.2634 51.815l-24.5653 242.185h245.653l-24.5653-242.185z"/>
    </g>
  </svg>
</svg>
