<?xml version="1.0" encoding="UTF-8" standalone="no"?>
<svg xmlns:svg="http://www.w3.org/2000/svg" xmlns="http://www.w3.org/2000/svg" version="1.1" style="overflow:visible" viewBox="-150 -150 300 300" height="300px" width="300px">
  <rect fill-opacity="0" fill="rgb(0,0,0)" height="300" width="300" y="-150" x="-150"/>
  <svg version="1.1" y="-250" x="-250" viewBox="-250 -250 500 500" height="500px" width="500px" style="overflow:visible">
    <g transform="rotate(0,0,0)" stroke-linejoin="round" fill="#fff">
      <path stroke-linecap="butt" stroke-linejoin="round" stroke="none" fill="rgb(255,227,156)" d="m0.002-147l-98.2634 51.815l-24.5653 242.185h245.653l-24.5653-242.185z"/>
      <path stroke-linecap="butt" stroke-linejoin="round" stroke="none" fill="rgb(68,68,68)" d="m55.68-59.335001h-27v-12.24h22.08v-12.96h-22.08v-13.56h-14.76v13.56h-22.32v12.96h22.32v12.24h-25.92v13.2h67.68zm-67.92 21.36c-1.92-3.24-10.56-16.8-13.92-21.36v-3.84h13.08v-13.32h-13.08v-22.32h-12.96v22.44h-14.28v13.2h13.44c-3.48 14.4-9.84 31.32-17.16 40.56c2.28 3.84 5.4 10.44 6.72 14.4c4.2-6.12 8.039999-15.12 11.28-24.84v46.44h12.96v-54.6c2.28 4.68 4.44 9.6 5.64 12.96zm40.92 33.84v-14.16h23.76v-13.08h-23.76v-11.16h-14.76v11.16h-23.76v13.08h23.76v14.16h-31.56v13.56h74.76v-13.56z"/>
      <path stroke-linecap="butt" stroke-linejoin="round" stroke="none" fill="rgb(68,68,68)" d="m-44.1 125.495c8.039999-7.2 11.52-18.96 13.8-30.72l-12.6-3.48c-1.8 10.56-5.88 20.64-12.72 27zm18.24-28.68c2.16 7.8 3.84 18.12 3.96 24.84l12.72-2.16c-0.36-6.72-2.16-16.8-4.68-24.6zm20.64-0.36c3 7.08 5.76 16.44 6.48 22.2l11.76-3.12c-0.96-5.88-4.08-15-7.2-21.84zm-20.76-28.08h21.72v7.56h-21.72zm21.72-37.2v7.44h-21.72v-7.44zm0 26.16h-21.72v-7.44h21.72zm14.16 18.6v-7.56h31.92v-11.04h-31.92v-7.44h31.92v-11.28h-31.92v-7.44h36.12v-12.24h-86.04v69.36h79.8c-1.08 15.48-2.4 21.84-4.08 23.88c-1.08 1.2-2.16 1.32-4.08 1.32c-2.04 0.12-6.48 0-11.28-0.48c2.16 3.72 3.72 9.12 3.96 13.2c5.88 0.24 11.28 0.12 14.64-0.36c3.72-0.48 6.36-1.56 9-4.56c3.48-3.96 5.04-14.64 6.6-39.72c0.12-1.92 0.24-5.64 0.24-5.64zm23.28 31.68c-1.56-4.68-5.4-11.52-9-16.68l-10.32 3.48c3.48 5.28 6.96 12.6 8.279999 17.16z"/>
      <path stroke-linecap="butt" stroke-linejoin="round" stroke-width="0" stroke-opacity="1" stroke="rgb(68,68,68)" fill="none" d="m0.002-147l-98.2634 51.815l-24.5653 242.185h245.653l-24.5653-242.185z"/>
    </g>
  </svg>
</svg>
