<?xml version="1.0" encoding="UTF-8" standalone="no"?>
<svg xmlns:svg="http://www.w3.org/2000/svg" xmlns="http://www.w3.org/2000/svg" version="1.1" style="overflow:visible" viewBox="-150 -150 300 300" height="300px" width="300px">
  <rect fill-opacity="0" fill="rgb(0,0,0)" height="300" width="300" y="-150" x="-150"/>
  <svg version="1.1" y="-250" x="-250" viewBox="-250 -250 500 500" height="500px" width="500px" style="overflow:visible">
    <g transform="rotate(0,0,0)" stroke-linejoin="round" fill="#fff">
      <path stroke-linecap="butt" stroke-linejoin="round" stroke="none" fill="rgb(255,227,156)" d="m0.002-147l-98.2634 51.815l-24.5653 242.185h245.653l-24.5653-242.185z"/>
      <path stroke-linecap="butt" stroke-linejoin="round" stroke="none" fill="rgb(239,69,74)" d="m34.86-60.415c-2.88 9.72-6.84 18.6-11.52 26.64c-2.04-9.6-3.72-20.88-4.8-32.880001h37.08v-14.16h-12.48l5.76-6.12c-4.2-3.96-12.96-9.48-19.56-12.84l-8.64 8.52c4.92 3 10.92 6.84 15.36 10.44h-18.36c-0.24-5.88-0.36-11.76-0.24-17.76h-15c0 6 0.24 11.88 0.48 17.76h-48.96v35.04c0 15.6-0.84 36.48-9.96 50.88c3.24 1.68 9.6 6.96 12.12 9.72c9.84-14.64 12.36-38.04 12.84-55.56h15.6c-0.36 15.12-0.84 20.88-2.04 22.56c-0.96 1.2-1.92 1.44-3.6 1.44c-1.92 0-6-0.12-10.32-0.48c2.16 3.6 3.72 9.12 3.96 13.32c5.52 0.12 10.68 0.12 13.8-0.36c3.6-0.6 6-1.68 8.279999-4.8c2.76-3.48 3.48-14.16 3.84-39.36c0-1.68 0.12-5.4 0.12-5.4h-29.64v-12.84h34.8c1.56 18 4.2 34.8 8.279999 48.36c-6.96 7.8-15.24 14.4-24.48 19.44c3 2.76 8.16 8.64 10.32 11.76c7.44-4.56 14.16-9.96 20.28-16.32c5.28 9.84 11.88 15.84 20.28 15.84c11.16 0 15.96-5.28 18.24-27.48c-3.84-1.56-8.88-4.68-12.12-8.04c-0.6 15-2.04 21-4.92 21c-3.84 0-7.68-5.04-11.16-13.68c8.64-11.64 15.72-25.56 20.64-41.16z"/>
      <path stroke-linecap="butt" stroke-linejoin="round" stroke="none" fill="rgb(239,69,74)" d="m55.68 53.615h-27v-12.24h22.08v-12.96h-22.08v-13.56h-14.76v13.56h-22.32v12.96h22.32v12.24h-25.92v13.2h67.68zm-67.92 21.36c-1.92-3.24-10.56-16.8-13.92-21.36v-3.84h13.08v-13.32h-13.08v-22.32h-12.96v22.44h-14.28v13.2h13.44c-3.48 14.4-9.84 31.32-17.16 40.56c2.28 3.84 5.4 10.44 6.72 14.4c4.2-6.12 8.039999-15.12 11.28-24.84v46.44h12.96v-54.6c2.28 4.68 4.44 9.6 5.64 12.96zm40.92 33.84v-14.16h23.76v-13.08h-23.76v-11.16h-14.76v11.16h-23.76v13.08h23.76v14.16h-31.56v13.56h74.76v-13.56z"/>
      <path stroke-linecap="butt" stroke-linejoin="round" stroke-width="0" stroke-opacity="1" stroke="rgb(68,68,68)" fill="none" d="m0.002-147l-98.2634 51.815l-24.5653 242.185h245.653l-24.5653-242.185z"/>
    </g>
  </svg>
</svg>
