<?xml version="1.0" encoding="UTF-8" standalone="no"?>
<svg xmlns:svg="http://www.w3.org/2000/svg" xmlns="http://www.w3.org/2000/svg" version="1.1" style="overflow:visible" viewBox="-150 -150 300 300" height="300px" width="300px">
  <rect fill-opacity="0" fill="rgb(0,0,0)" height="300" width="300" y="-150" x="-150"/>
  <svg version="1.1" y="-250" x="-250" viewBox="-250 -250 500 500" height="500px" width="500px" style="overflow:visible">
    <g transform="rotate(0,0,0)" stroke-linejoin="round" fill="#fff">
      <path stroke-linecap="butt" stroke-linejoin="round" stroke="none" fill="rgb(255,227,156)" d="m0.002-147l-98.2634 51.815l-24.5653 242.185h245.653l-24.5653-242.185z"/>
      <path stroke-linecap="butt" stroke-linejoin="round" stroke="none" fill="rgb(239,69,74)" d="m28.379999-80.695c-3 2.52-6.48 4.56-10.92 7.2c-5.64 3.12-15.96 8.4-25.68 14.04c-4.8-9.12-10.32-20.52-14.88-32.880001l-15 6.12c5.4 12.6 11.16 25.2 16.68 35.4c-11.4 8.4-19.68 18.12-19.68 31.32c0 20.4 17.88 27 41.52 27c15.48 0 28.08-1.2 38.16-2.88l0.24-17.16c-10.56 2.4-26.64 4.32-38.88 4.32c-16.440001 0-24.72-4.56-24.72-13.08c0-8.28 6.6-15.12 16.559999-21.6c10.8-6.96 25.68-13.92 33.119999-17.64c4.32-2.16 8.16-4.2 11.76-6.36z"/>
      <path stroke-linecap="butt" stroke-linejoin="round" stroke="none" fill="rgb(239,69,74)" d="m-8.400001 86.615v24h-16.2l9.84-4.2c-1.8-5.52-6.48-13.68-11.04-19.8zm-13.56-36.6c8.64-7.2 16.079999-15 21.24-22.2c5.28 7.2 13.2 15 22.08 22.2zm45.24 36.6c-2.64 6.36-7.44 15.12-11.4 20.76l7.8 3.24h-13.08v-24h36.96v-12.24h-36.96v-11.88h22.92v-6.24c6 4.32 12.24 8.279999 18.24 11.4c2.64-4.44 5.88-9.24 9.48-12.84c-18.96-7.68-38.28-22.8-51.24-40.92h-14.76c-8.88 14.4-28.08 32.4-48.48 42.36c3.12 3 7.08 8.16 8.88 11.52c6.12-3.24 12.24-7.08 17.88-11.16v5.88h22.08v11.88h-36.48v12.24h18.36l-10.92 4.68c4.2 5.88 8.16 13.92 9.96 19.32h-23.4v12.24h101.52v-12.24h-27.12c4.2-5.04 8.88-12.36 13.44-18.96z"/>
      <path stroke-linecap="butt" stroke-linejoin="round" stroke-width="0" stroke-opacity="1" stroke="rgb(68,68,68)" fill="none" d="m0.002-147l-98.2634 51.815l-24.5653 242.185h245.653l-24.5653-242.185z"/>
    </g>
  </svg>
</svg>
