<?xml version="1.0"?>
<svg xmlns="http://www.w3.org/2000/svg" xmlns:xlink="http://www.w3.org/1999/xlink" version="1.1" baseProfile="full" viewBox="0 0 200 200" width="200" height="200">
<g fill="rgb(239,69,74)" stroke-width="0">
<path d="M 178.0 148.0 L 180.0 148.0 L 178.0 173.0 L 181.6 175.4 L 184.0 179.0 L 181.6 182.6 L 178.0 185.0 L 110.0 185.0 L 107.4 184.8 L 104.9 184.4 L 102.5 183.6 L 100.2 182.3 L 98.2 180.7 L 96.6 178.7 L 95.3 176.4 L 94.5 174.0 L 94.1 171.5 L 94.0 169.0 L 94.0 150.0 L 59.0 150.0 L 59.0 162.0 L 47.0 168.0 L 47.0 89.0 L 59.0 95.0 L 142.0 95.0 L 148.0 90.0 L 159.0 99.0 L 154.0 103.0 L 154.0 156.0 L 142.0 162.0 L 142.0 150.0 L 106.0 150.0 L 106.0 170.2 L 106.2 171.1 L 106.5 172.0 L 106.9 172.4 L 107.8 172.7 L 108.7 172.9 L 110.0 173.0 L 172.0 173.0 Z M 59.0 124.0 L 59.0 146.0 L 94.0 146.0 L 94.0 124.0 Z M 106.0 124.0 L 106.0 146.0 L 142.0 146.0 L 142.0 124.0 Z M 59.0 99.0 L 59.0 120.0 L 94.0 120.0 L 94.0 99.0 Z M 106.0 99.0 L 106.0 120.0 L 142.0 120.0 L 142.0 99.0 Z M 31.0 39.0 L 95.0 39.0 L 95.0 13.0 L 107.0 15.0 L 110.0 17.0 L 107.0 18.8 L 107.0 39.0 L 148.0 39.0 L 158.0 29.0 L 170.0 39.0 L 170.0 43.0 L 130.4563380241394 43.0 L 138.6 48.9 L 140.1 52.2 L 136.08928575515748 52.2 L 134.2 54.5 L 131.9 57.5 L 126.7 63.7 L 123.8 66.9 L 120.8 70.2 L 117.6 73.6 L 113.2 78.0 L 159.0 78.0 L 169.0 68.0 L 181.0 78.0 L 181.0 82.0 L 20.0 82.0 L 20.0 78.0 L 109.96363639831543 78.0 L 111.6 75.0 L 113.7 70.8 L 115.9 66.7 L 118.0 62.8 L 120.0 59.1 L 121.9 55.6 L 123.7 52.1 L 126.9 45.7 L 127.86509294509888 43.631943702697754 L 127.8 43.6 L 128.13333330154418 43.0 L 31.0 43.0 Z M 73.0 67.0 L 72.1 64.2 L 71.1 61.4 L 70.0 58.8 L 68.8 56.2 L 67.4 53.6 L 65.9 51.1 L 64.2 48.5 L 62.2 46.3 L 63.3 44.8 L 66.0 46.5 L 68.8 48.1 L 71.5 50.0 L 74.0 52.1 L 76.3 54.5 L 78.5 57.1 L 80.6 59.8 L 82.5 62.8 L 84.2 66.0 L 85.8 69.3 L 85.3 73.8 L 81.9 76.8 L 77.3 76.4 L 74.3 72.9 L 73.7 69.9 Z "/>
</g>
</svg>
