<?xml version="1.0" encoding="UTF-8" standalone="no"?>
<svg xmlns:svg="http://www.w3.org/2000/svg" xmlns="http://www.w3.org/2000/svg" version="1.1" style="overflow:visible" viewBox="-150 -150 300 300" height="300px" width="300px">
  <rect fill-opacity="0" fill="rgb(0,0,0)" height="300" width="300" y="-150" x="-150"/>
  <svg version="1.1" y="-250" x="-250" viewBox="-250 -250 500 500" height="500px" width="500px" style="overflow:visible">
    <g transform="rotate(0,0,0)" stroke-linejoin="round" fill="#fff">
      <path stroke-linecap="butt" stroke-linejoin="round" stroke="none" fill="rgb(255,227,156)" d="m0.002-147l-98.2634 51.815l-24.5653 242.185h245.653l-24.5653-242.185z"/>
      <path stroke-linecap="butt" stroke-linejoin="round" stroke="none" fill="rgb(239,69,74)" d="m14.339999-79.135c-1.2 3.12-3 7.08-4.44 10.08l3.84 0.48h-30.72l3.72-0.84c-0.6-2.76-2.16-6.48-3.96-9.72zm38.4 10.56h-27.72c1.56-2.64 3.36-6.12 5.28-10.08l-3.84-0.48h19.92v-11.52h-40.56v-8.04h-15v8.039999h-39v11.52h18.96l-2.88 0.6c1.56 2.88 3.24 6.72 4.08 9.96h-27.48v11.88h108.24zm-81.6 52.2v-7.68h20.16v7.68zm20.16-24.12v6.96h-20.16v-6.96zm35.76 6.96h-21.48v-6.96h21.48zm-21.48 17.16v-7.68h21.48v7.68zm8.279999 18.96c-6.96 0-8.28-0.72-8.28-5.64v-2.64h36.24v-45.48h-85.08v49.92h14.4v-4.44h20.16v2.76c0 12.84 4.56 16.559999 21.12 16.559999h24.36c13.2 0 17.16-4.08 18.72-17.64c-3.72-0.84-9.12-2.64-12.36-4.68c-0.72 9.48-2.04 11.28-7.68 11.28z"/>
      <path stroke-linecap="butt" stroke-linejoin="round" stroke="none" fill="rgb(239,69,74)" d="m6.36 107.134999v-30.48h36.36v-14.16h-36.36v-26.88h41.04v-14.16h-96.84v14.16h40.8v26.88h-35.16v14.16h35.16v30.48h-46.56v14.04h108.72v-14.04z"/>
      <path stroke-linecap="butt" stroke-linejoin="round" stroke-width="0" stroke-opacity="1" stroke="rgb(68,68,68)" fill="none" d="m0.002-147l-98.2634 51.815l-24.5653 242.185h245.653l-24.5653-242.185z"/>
    </g>
  </svg>
</svg>
