<?xml version="1.0" encoding="UTF-8" standalone="no"?>
<svg xmlns:svg="http://www.w3.org/2000/svg" xmlns="http://www.w3.org/2000/svg" version="1.1" style="overflow:visible" viewBox="-150 -150 300 300" height="300px" width="300px">
  <rect fill-opacity="0" fill="rgb(0,0,0)" height="300" width="300" y="-150" x="-150"/>
  <svg version="1.1" y="-250" x="-250" viewBox="-250 -250 500 500" height="500px" width="500px" style="overflow:visible">
    <g transform="rotate(0,0,0)" stroke-linejoin="round" fill="#fff">
      <path stroke-linecap="butt" stroke-linejoin="round" stroke="none" fill="rgb(255,227,156)" d="m0.002-147l-98.2634 51.815l-24.5653 242.185h245.653l-24.5653-242.185z"/>
      <path stroke-linecap="butt" stroke-linejoin="round" stroke="none" fill="rgb(68,68,68)" d="m10.86-40.015h6.72c2.16 11.4 5.16 21.6 9.48 30.24c-5.4 1.2-10.92 2.4-16.2 3.6zm26.64-41.64v8.279999h-26.64v-8.28zm-26.64 29.04v-8.76h26.64v8.76zm-51-16.440001c5.04-5.52 8.88-11.16 12.12-16.32c5.04 4.8 10.44 11.28 14.04 16.32zm86.28 32.04c-3 3.24-7.56 7.32-11.88 10.56c-1.68-4.2-2.88-8.76-3.96-13.56h20.76v-54.24h-53.52v90.72l-3.96 0.72l-0.36-6.48c-5.52 0.96-11.16 1.8-16.68 2.76v-29.76h15.84v-12.12h-15.84v-8.76h13.2v-11.4l7.32-8.64c-4.44-6.48-13.92-15.36-21.24-21.36h-11.64c-4.2 9.24-11.52 20.52-22.2 29.04c2.88 1.92 6.84 6.6 8.76 9.48l1.92-1.68v4.56h11.52v8.76h-16.8v12.12h16.8v31.68c-6.96 1.08-13.32 1.92-18.48 2.64l2.76 12.72c11.64-1.92 26.88-4.56 41.52-7.32l2.4 8.64c10.56-2.4 23.88-5.52 36.36-8.64l-1.56-12.72c5.16 9.96 12 17.76 21.72 22.92c1.92-3.72 6-9.12 9.12-11.88c-8.04-3.72-14.16-9.72-18.72-17.4c5.16-3.24 11.4-7.56 16.44-11.64zm-97.68 7.68c1.92 6.6 3.72 15.12 4.08 20.88l9.84-2.76c-0.6-5.52-2.52-14.04-4.56-20.52zm37.68 19.2c2.04-5.16 4.44-12.96 6.84-20.04l-10.8-2.64c-0.72 5.88-2.76 14.64-4.44 20.16z"/>
      <path stroke-linecap="butt" stroke-linejoin="round" stroke="none" fill="rgb(68,68,68)" d="m-35.520001 47.975c-2.28-6.24-5.52-13.44-8.76-19.32l-11.64 5.04c4.08 8.52 8.4 19.56 9.96 26.76l10.44-5.04v22.92c-8.04 5.04-16.08 9.6-21.36 12.48l6.36 14.88c4.8-3.48 9.96-7.44 15-11.4v31.92h13.92v-111.84h-13.92zm76.44-33.72c-14.52 4.32-38.16 7.8-59.16 9.72c1.32 2.88 3.12 8.039999 3.6 11.28c21.6-1.56 46.8-4.92 65.04-10.08zm-15.84 40.44c-0.6-5.52-3.24-14.28-6.12-20.88l-12.36 3.24c2.76 6.84 5.04 15.6 5.4 21.24zm-20.4 4.2c-1.44-5.88-5.52-14.52-9.48-21.12l-11.28 4.08c3.72 6.96 7.32 16.079999 8.52 21.72zm-15.12 31.92c5.28 6.48 11.52 15.36 13.8 21.12l12.48-6.84c-2.76-5.88-9.24-14.28-14.76-20.28zm66.84-20.04h-15.48v-7.56h-3.48c5.64-6.96 11.88-15.96 17.16-24.6l-13.2-6.12c-4.44 9.36-12.36 21.48-18.6 29.16l3.96 2.04v7.08h-44.64v13.2h44.64v26.52c0 1.56-0.48 1.92-2.52 2.04s-8.76 0.12-15-0.24c1.92 3.96 3.84 9.96 4.44 13.92c9.36 0 16.2-0.12 20.88-2.4c5.04-2.04 6.36-5.88 6.36-13.08v-26.76h15.48z"/>
      <path stroke-linecap="butt" stroke-linejoin="round" stroke-width="0" stroke-opacity="1" stroke="rgb(68,68,68)" fill="none" d="m0.002-147l-98.2634 51.815l-24.5653 242.185h245.653l-24.5653-242.185z"/>
    </g>
  </svg>
</svg>
