<?xml version="1.0" encoding="UTF-8" standalone="no"?>
<svg xmlns:svg="http://www.w3.org/2000/svg" xmlns="http://www.w3.org/2000/svg" version="1.1" style="overflow:visible" viewBox="-150 -150 300 300" height="300px" width="300px">
  <rect fill-opacity="0" fill="rgb(0,0,0)" height="300" width="300" y="-150" x="-150"/>
  <svg version="1.1" y="-250" x="-250" viewBox="-250 -250 500 500" height="500px" width="500px" style="overflow:visible">
    <g transform="rotate(0,0,0)" stroke-linejoin="round" fill="#fff">
      <path stroke-linecap="butt" stroke-linejoin="round" stroke="none" fill="rgb(255,227,156)" d="m0.002-147l-98.2634 51.815l-24.5653 242.185h245.653l-24.5653-242.185z"/>
      <path stroke-linecap="butt" stroke-linejoin="round" stroke="none" fill="rgb(239,69,74)" d="m34.079999-60.415c-2.88 9.72-6.84 18.6-11.52 26.64c-2.04-9.6-3.72-20.88-4.8-32.880001h37.08v-14.16h-12.48l5.76-6.12c-4.2-3.96-12.96-9.48-19.56-12.84l-8.64 8.52c4.92 3 10.92 6.84 15.36 10.44h-18.36c-0.24-5.88-0.36-11.76-0.24-17.76h-15c0 6 0.24 11.88 0.48 17.76h-48.96v35.04c0 15.6-0.84 36.48-9.96 50.88c3.24 1.68 9.6 6.96 12.12 9.72c9.84-14.64 12.36-38.04 12.84-55.56h15.6c-0.36 15.12-0.84 20.88-2.04 22.56c-0.96 1.2-1.92 1.44-3.6 1.44c-1.92 0-6-0.12-10.32-0.48c2.16 3.6 3.72 9.12 3.96 13.32c5.52 0.12 10.68 0.12 13.8-0.36c3.6-0.6 6-1.68 8.279999-4.8c2.76-3.48 3.48-14.16 3.84-39.36c0-1.68 0.12-5.4 0.12-5.4h-29.64v-12.84h34.8c1.56 18 4.2 34.8 8.279999 48.36c-6.96 7.8-15.24 14.4-24.48 19.44c3 2.76 8.16 8.64 10.32 11.76c7.44-4.56 14.16-9.96 20.28-16.32c5.28 9.84 11.88 15.84 20.28 15.84c11.16 0 15.96-5.28 18.24-27.48c-3.84-1.56-8.88-4.68-12.12-8.04c-0.6 15-2.04 21-4.92 21c-3.84 0-7.68-5.04-11.16-13.68c8.64-11.64 15.72-25.56 20.64-41.16z"/>
      <path stroke-linecap="butt" stroke-linejoin="round" stroke="none" fill="rgb(239,69,74)" d="m10.86 72.935h6.72c2.16 11.4 5.16 21.6 9.48 30.24c-5.4 1.2-10.92 2.4-16.2 3.6zm26.64-41.64v8.279999h-26.64v-8.28zm-26.64 29.04v-8.76h26.64v8.76zm-51-16.440001c5.04-5.52 8.88-11.16 12.12-16.32c5.04 4.8 10.44 11.28 14.04 16.32zm86.28 32.04c-3 3.24-7.56 7.32-11.88 10.56c-1.68-4.2-2.88-8.76-3.96-13.56h20.76v-54.24h-53.52v90.72l-3.96 0.72l-0.36-6.48c-5.52 0.96-11.16 1.8-16.68 2.76v-29.76h15.84v-12.12h-15.84v-8.76h13.2v-11.4l7.32-8.64c-4.44-6.48-13.92-15.36-21.24-21.36h-11.64c-4.2 9.24-11.52 20.52-22.2 29.04c2.88 1.92 6.84 6.6 8.76 9.48l1.92-1.68v4.56h11.52v8.76h-16.8v12.12h16.8v31.68c-6.96 1.08-13.32 1.92-18.48 2.64l2.76 12.72c11.64-1.92 26.88-4.56 41.52-7.32l2.4 8.64c10.56-2.4 23.88-5.52 36.36-8.64l-1.56-12.72c5.16 9.96 12 17.76 21.72 22.92c1.92-3.72 6-9.12 9.12-11.88c-8.04-3.72-14.16-9.72-18.72-17.4c5.16-3.24 11.4-7.56 16.44-11.64zm-97.68 7.68c1.92 6.6 3.72 15.12 4.08 20.88l9.84-2.76c-0.6-5.52-2.52-14.04-4.56-20.52zm37.68 19.2c2.04-5.16 4.44-12.96 6.84-20.04l-10.8-2.64c-0.72 5.88-2.76 14.64-4.44 20.16z"/>
      <path stroke-linecap="butt" stroke-linejoin="round" stroke-width="0" stroke-opacity="1" stroke="rgb(68,68,68)" fill="none" d="m0.002-147l-98.2634 51.815l-24.5653 242.185h245.653l-24.5653-242.185z"/>
    </g>
  </svg>
</svg>
